<svg width="387" height="387" viewBox="0 0 387 387" fill="none" xmlns="http://www.w3.org/2000/svg">
<path d="M193.5 0C86.6404 0 0 86.6716 0 193.5C0 300.391 86.6404 387 193.5 387C300.36 387 387 300.391 387 193.5C387 86.6716 300.36 0 193.5 0ZM193.5 85.8266C211.598 85.8266 226.27 100.498 226.27 118.597C226.27 136.695 211.598 151.367 193.5 151.367C175.402 151.367 160.73 136.695 160.73 118.597C160.73 100.498 175.402 85.8266 193.5 85.8266ZM237.194 284.008C237.194 289.179 233.001 293.371 227.831 293.371H159.169C153.999 293.371 149.806 289.179 149.806 284.008V265.282C149.806 260.112 153.999 255.919 159.169 255.919H168.532V205.984H159.169C153.999 205.984 149.806 201.792 149.806 196.621V177.895C149.806 172.724 153.999 168.532 159.169 168.532H209.105C214.275 168.532 218.468 172.724 218.468 177.895V255.919H227.831C233.001 255.919 237.194 260.112 237.194 265.282V284.008Z" fill="#E1E1E1"/>
</svg>
