<svg width="256" height="256" viewBox="0 0 256 256" fill="none" xmlns="http://www.w3.org/2000/svg">
<rect width="256" height="256" rx="30" fill="white"/>
<path d="M13 34C13 22.9543 21.9543 14 33 14H222C233.046 14 242 22.9543 242 34V223C242 234.046 233.046 243 222 243H33C21.9543 243 13 234.046 13 223V34Z" fill="#35404B"/>
<circle cx="97" cy="108" r="15" fill="#FFD600"/>
<path d="M128.422 177L205 177.69V197C205 197 165.523 197 145 197C124.477 197 128.422 177 128.422 177Z" fill="#FFD600"/>
<path d="M102.005 158C91.1422 158 81.8184 156.005 74.0335 152.016C66.2487 147.936 60.2742 142.088 56.1102 134.472C52.0367 126.856 50 117.699 50 107C50 96.3013 52.0367 87.144 56.1102 79.528C60.2742 71.912 66.2487 66.1093 74.0335 62.12C81.8184 58.04 91.1422 56 102.005 56C114.406 56 125.405 58.6747 135 64.024L130.655 80.616C121.331 75.3573 112.053 72.728 102.819 72.728C95.9398 72.728 90.0107 74.088 85.0319 76.808C80.0532 79.528 76.2513 83.472 73.6262 88.64C71.0011 93.7173 69.6885 99.8373 69.6885 107C69.6885 114.072 71.0011 120.192 73.6262 125.36C76.2513 130.528 80.0532 134.472 85.0319 137.192C90.0107 139.912 95.9398 141.272 102.819 141.272C111.872 141.272 121.15 138.643 130.655 133.384L135 149.976C125.405 155.325 114.406 158 102.005 158Z" fill="white"/>
<rect x="131" y="59" width="67" height="82" fill="#FFD600"/>
<path d="M132.162 148.643L132.168 148.649L132.174 148.655C139.457 156.045 150.407 159.5 164.5 159.5C178.593 159.5 189.543 156.045 196.826 148.655L196.832 148.649L196.838 148.643C204.103 141.172 207.5 130.004 207.5 115.645L207.5 59L207.5 56.5H205H195.455H185.909H183.409L183.409 59L183.409 111.959C183.409 118.938 182.734 124.229 181.492 127.957C180.282 131.589 178.395 133.995 175.937 135.451C173.364 136.882 169.623 137.712 164.5 137.712C159.491 137.712 155.734 136.89 153.05 135.443C150.599 133.987 148.716 131.583 147.508 127.957C146.267 124.229 145.591 118.938 145.591 111.959L145.591 59L145.591 56.5H143.091H133.545H124H121.5L121.5 59L121.5 115.645C121.5 130.004 124.897 141.172 132.162 148.643Z" fill="white" stroke="#35404B" stroke-width="5"/>
</svg>
