<svg width="256" height="256" viewBox="0 0 256 256" fill="none" xmlns="http://www.w3.org/2000/svg">
<rect width="256" height="256" rx="50" fill="#FFD600"/>
<rect x="134" y="184" width="80" height="20" fill="white"/>
<rect x="73" y="98" width="20" height="20" rx="10" fill="white"/>
<path d="M109.412 161.95C106.206 162.581 102.173 163.054 97.3121 163.369C92.5548 163.79 88.1077 164 83.9709 164C71.1469 164 61.7874 162.581 55.8925 159.743C49.9975 156.905 46.0159 151.754 43.9475 144.291C41.9825 136.723 41 124.793 41 108.5C41 92.3125 41.9825 80.4347 43.9475 72.8665C46.0159 65.2983 49.9975 60.0952 55.8925 57.2571C61.7874 54.419 71.1469 53 83.9709 53C88.2112 53 92.6582 53.2102 97.3121 53.6307C101.966 54.0511 105.793 54.6293 108.792 55.3651V67.1903C101.035 66.1392 93.8993 65.6136 87.3838 65.6136C76.5247 65.6136 68.9234 66.4545 64.5797 68.1364C60.3395 69.8182 57.5472 73.4446 56.2027 79.0156C54.8583 84.5866 54.186 94.4148 54.186 108.5C54.186 122.585 54.8583 132.413 56.2027 137.984C57.5472 143.555 60.3395 147.182 64.5797 148.864C68.9234 150.545 76.5247 151.386 87.3838 151.386C95.3471 151.386 102.69 150.861 109.412 149.81V161.95Z" fill="black"/>
<path d="M214 54.2614V115.28C214 129.365 213.121 139.719 211.363 146.341C209.605 152.858 205.933 157.43 200.349 160.058C194.764 162.686 185.766 164 173.356 164C160.946 164 151.948 162.686 146.363 160.058C140.779 157.325 137.056 152.7 135.194 146.183C133.436 139.666 132.557 129.365 132.557 115.28V54.2614H145.743V120.483C145.743 129.943 146.26 136.67 147.294 140.665C148.328 144.659 150.707 147.445 154.43 149.021C158.153 150.598 164.462 151.386 173.356 151.386C182.25 151.386 188.507 150.598 192.127 149.021C195.85 147.445 198.177 144.712 199.108 140.822C200.142 136.828 200.659 130.048 200.659 120.483V54.2614H214Z" fill="black"/>
</svg>
