<svg width="48" height="42" viewBox="0 0 48 42" fill="none" xmlns="http://www.w3.org/2000/svg">
<path d="M45 12H3C1.34316 12 0 10.6568 0 9V3C0 1.34316 1.34316 0 3 0H45C46.6568 0 48 1.34316 48 3V9C48 10.6568 46.6568 12 45 12ZM40.5 3.75C39.2573 3.75 38.25 4.75734 38.25 6C38.25 7.24266 39.2573 8.25 40.5 8.25C41.7427 8.25 42.75 7.24266 42.75 6C42.75 4.75734 41.7427 3.75 40.5 3.75ZM34.5 3.75C33.2573 3.75 32.25 4.75734 32.25 6C32.25 7.24266 33.2573 8.25 34.5 8.25C35.7427 8.25 36.75 7.24266 36.75 6C36.75 4.75734 35.7427 3.75 34.5 3.75ZM45 27H3C1.34316 27 0 25.6568 0 24V18C0 16.3432 1.34316 15 3 15H45C46.6568 15 48 16.3432 48 18V24C48 25.6568 46.6568 27 45 27ZM40.5 18.75C39.2573 18.75 38.25 19.7573 38.25 21C38.25 22.2427 39.2573 23.25 40.5 23.25C41.7427 23.25 42.75 22.2427 42.75 21C42.75 19.7573 41.7427 18.75 40.5 18.75ZM34.5 18.75C33.2573 18.75 32.25 19.7573 32.25 21C32.25 22.2427 33.2573 23.25 34.5 23.25C35.7427 23.25 36.75 22.2427 36.75 21C36.75 19.7573 35.7427 18.75 34.5 18.75ZM45 42H3C1.34316 42 0 40.6568 0 39V33C0 31.3432 1.34316 30 3 30H45C46.6568 30 48 31.3432 48 33V39C48 40.6568 46.6568 42 45 42ZM40.5 33.75C39.2573 33.75 38.25 34.7573 38.25 36C38.25 37.2427 39.2573 38.25 40.5 38.25C41.7427 38.25 42.75 37.2427 42.75 36C42.75 34.7573 41.7427 33.75 40.5 33.75ZM34.5 33.75C33.2573 33.75 32.25 34.7573 32.25 36C32.25 37.2427 33.2573 38.25 34.5 38.25C35.7427 38.25 36.75 37.2427 36.75 36C36.75 34.7573 35.7427 33.75 34.5 33.75Z" fill="#E1E1E1"/>
</svg>
